<?xml version="1.0" encoding="UTF-8" standalone="no"?>
<!-- Created with Inkscape (http://www.inkscape.org/) -->

<svg
   xmlns:dc="http://purl.org/dc/elements/1.1/"
   xmlns:cc="http://creativecommons.org/ns#"
   xmlns:rdf="http://www.w3.org/1999/02/22-rdf-syntax-ns#"
   xmlns:svg="http://www.w3.org/2000/svg"
   xmlns="http://www.w3.org/2000/svg"
   xmlns:sodipodi="http://sodipodi.sourceforge.net/DTD/sodipodi-0.dtd"
   xmlns:inkscape="http://www.inkscape.org/namespaces/inkscape"
   version="1.1"
   id="svg3718"
   width="682.66669"
   height="682.66669"
   viewBox="0 0 682.66669 682.66669"
   sodipodi:docname="code.png"
   inkscape:version="0.92.2 (5c3e80d, 2017-08-06)">
  <metadata
     id="metadata3724">
    <rdf:RDF>
      <cc:Work
         rdf:about="">
        <dc:format>image/svg+xml</dc:format>
        <dc:type
           rdf:resource="http://purl.org/dc/dcmitype/StillImage" />
        <dc:title></dc:title>
      </cc:Work>
    </rdf:RDF>
  </metadata>
  <defs
     id="defs3722" />
  <sodipodi:namedview
     pagecolor="#ffffff"
     bordercolor="#666666"
     borderopacity="1"
     objecttolerance="10"
     gridtolerance="10"
     guidetolerance="10"
     inkscape:pageopacity="0"
     inkscape:pageshadow="2"
     inkscape:window-width="1920"
     inkscape:window-height="1005"
     id="namedview3720"
     showgrid="false"
     inkscape:zoom="1.1923828"
     inkscape:cx="154.43494"
     inkscape:cy="341.33334"
     inkscape:window-x="0"
     inkscape:window-y="28"
     inkscape:window-maximized="1"
     inkscape:current-layer="svg3718" />
  <path
     inkscape:connector-curvature="0"
     id="path3738"
     d="M 133.50233,642.4645 C 109.79427,638.77034 87.960391,627.05616 71.067357,608.96727 63.532462,600.89898 59.943111,595.54024 54.304844,583.94162 42.060265,558.75296 42.877111,577.03476 43.339028,338.51598 43.79648,102.30308 42.715511,124.98326 54.682456,100.51597 60.032005,89.578439 62.706935,86.014538 74.277521,74.408798 85.422784,63.229672 89.711636,59.931229 99.768263,54.804546 106.41829,51.41449 116.61829,47.262719 122.43493,45.57839 l 10.57573,-3.062418 h 210 210.00001 l 10.57572,3.062418 c 5.81666,1.684329 16.01666,5.8361 22.66667,9.226156 10.05663,5.126683 14.34548,8.425126 25.49075,19.604252 11.57058,11.60574 14.24552,15.169641 19.59506,26.107172 11.96695,24.46729 10.88598,1.78711 11.34343,238.00001 0.46191,238.51878 1.27876,220.23698 -10.96581,245.42564 -5.63827,11.59862 -9.22763,16.95736 -16.76252,25.02565 -17.30055,18.52525 -38.71927,29.82147 -63.67795,33.58367 -18.3691,2.76891 -399.95559,2.68995 -417.77369,-0.0864 z m 384.17501,-90.39951 56.66667,-22.88234 0.33794,-186.83291 c 0.26859,-148.48463 -0.005,-187.09875 -1.33333,-188.1281 -2.68839,-2.0834 -112.77383,-45.70567 -115.34312,-45.70567 -1.31394,0 -42.28318,39.96937 -93.66515,91.37915 -57.47331,57.50446 -92.08441,91.19014 -93.36559,90.86929 -1.11976,-0.28044 -27.60521,-20.40106 -58.85657,-44.7125 -31.25134,-24.31143 -57.79268,-44.2026 -58.98074,-44.2026 -2.60242,0 -41.8165,19.42093 -45.12679,22.34923 -2.1881,1.9356 -2.33334,9.19392 -2.33334,116.61175 0,77.01685 0.45598,115.39967 1.39168,117.14804 1.40224,2.62011 42.23249,23.89099 45.85965,23.89099 1.07213,0 27.80013,-20.1 59.39556,-44.66667 31.59541,-24.56667 58.17691,-44.66667 59.06997,-44.66667 0.89308,0 42.7205,41.1 92.94982,91.33334 62.72155,62.72656 92.16242,91.29648 93.99635,91.21567 1.46868,-0.0647 28.17032,-10.41471 59.33699,-23 z M 407.67733,398.38414 C 382.744,378.90214 356.494,358.42194 349.344,352.8726 c -7.15,-5.54935 -13,-10.48663 -13,-10.97174 0,-1.27897 116.96708,-92.05155 118.61514,-92.05155 0.94422,0 1.38486,29.27315 1.38486,92 0,72.72267 -0.34922,91.99546 -1.66666,91.97834 -0.91667,-0.012 -22.06667,-15.96149 -47.00001,-35.44351 z m -253.34931,8.77267 c -1.04888,-1.69712 0.43977,-129.4796 1.52124,-130.58008 1.04013,-1.0584 64.49473,63.1613 64.49473,65.27237 0,3.18942 -64.7927,67.28699 -66.01597,65.30771 z"
     style="fill:#8e609a;stroke-width:1.33333337" />
  <path
     inkscape:connector-curvature="0"
     id="path3736"
     d="M 133.4518,641.8327 C 98.264093,635.81426 69.288936,613.96854 53.678314,581.68776 42.981031,559.56715 43.677317,576.2187 43.677317,342.51598 V 134.51597 l 2.967778,-11.12643 C 56.715962,85.633074 83.932056,57.673862 121.08611,46.915974 l 10.59121,-3.066668 h 211.33334 211.33335 l 10.59121,3.066668 c 36.81412,10.659462 63.39155,37.690704 74.33078,75.599996 l 3.07801,10.66667 v 208.66667 c 0,234.53984 0.70515,217.69951 -10.04666,239.93285 -6.04637,12.50315 -9.75885,17.89174 -19.20082,27.8696 -12.92814,13.66188 -29.65552,23.8433 -48.99119,29.81933 l -9.76133,3.0169 -207.33334,0.20476 C 232.97733,642.80542 136.87584,642.41834 133.4518,641.8327 Z m 382.55208,-88.06934 c 31.35374,-12.51394 57.75887,-23.73147 58.67807,-24.92781 1.3249,-1.72438 1.60123,-40.86298 1.33334,-188.84569 L 575.67734,153.31936 518.344,130.31295 c -31.53333,-12.65352 -58.82313,-23.03429 -60.644,-23.06836 -2.63781,-0.0494 -21.92676,18.54687 -94.90811,91.49973 l -91.59743,91.56169 -4.42524,-3.39708 c -2.43386,-1.8684 -28.42523,-22.06982 -57.75856,-44.89206 -29.33333,-22.82223 -54.39,-41.49629 -55.68148,-41.49793 -1.29148,-10e-4 -12.52936,5.0943 -24.97308,11.3243 -17.69395,8.85856 -22.7935,11.9989 -23.39837,14.40892 -0.4254,1.69491 -0.28751,54.94765 0.30641,118.33941 l 1.07985,115.25775 22.66667,11.60676 c 12.46666,6.38372 23.38681,11.63372 24.267,11.66667 0.88019,0.0329 27.45112,-20.0401 59.04655,-44.60677 31.59541,-24.56666 58.17691,-44.66666 59.06997,-44.66666 0.89308,0 42.7205,41.1 92.94982,91.33333 50.22932,50.23334 92.07463,91.33334 92.98956,91.33334 0.91495,0 27.31659,-10.23868 58.67032,-22.75263 z M 420.344,407.02882 c -51.60236,-40.17442 -81.33334,-64.03353 -81.33334,-65.26997 0,-0.95348 109.26268,-86.71242 114.33334,-89.73883 1.32675,-0.79188 1.66667,17.51268 1.66667,89.7506 0,49.90995 -0.45,90.73302 -1,90.71791 -0.55,-0.0151 -15.7,-11.47196 -33.66667,-25.45971 z M 155.01066,343.26134 c 0,-34.42339 0.48836,-62.8898 1.08524,-63.25869 0.59687,-0.3689 15.12525,13.37886 32.28529,30.55056 l 31.20007,31.22126 -3.91457,4.37077 c -8.31084,9.27933 -58.68495,59.70408 -59.64412,59.70408 -0.55655,0 -1.01191,-28.16459 -1.01191,-62.58798 z"
     style="fill:#69566e;stroke-width:1.33333337" />
  <path
     inkscape:connector-curvature="0"
     id="path3734"
     d="M 129.67732,638.46158 C 98.749855,632.84787 70.747992,611.69728 56.461583,583.15971 44.10974,558.4865 45.010651,577.57667 45.010651,340.51598 V 131.84931 l 3.755319,-12 C 60.569665,82.130978 87.463127,56.483333 125.33617,46.826159 l 11.67449,-2.976853 h 206 206.00001 l 11.67448,2.976853 c 37.87304,9.657174 64.76651,35.304819 76.57021,73.023151 l 3.75532,12 v 208.66667 c 0,237.06069 0.9009,217.97052 -11.45094,242.64373 -14.54032,29.04477 -42.44239,49.83632 -74.34613,55.39987 -16.06531,2.80156 -410.06173,2.71081 -425.53629,-0.098 z m 386.32656,-84.69822 c 31.35374,-12.51394 57.75887,-23.73147 58.67807,-24.92781 1.3249,-1.72438 1.60123,-40.86298 1.33334,-188.84569 L 575.67734,153.31936 518.344,130.31295 c -31.53333,-12.65352 -58.82313,-23.03429 -60.644,-23.06836 -2.63781,-0.0494 -21.92676,18.54687 -94.90811,91.49973 l -91.59743,91.56169 -4.42524,-3.39708 c -2.43386,-1.8684 -28.42523,-22.06982 -57.75856,-44.89206 -29.33333,-22.82223 -54.39,-41.49629 -55.68148,-41.49793 -1.29148,-10e-4 -12.52936,5.0943 -24.97308,11.3243 -17.69395,8.85856 -22.7935,11.9989 -23.39837,14.40892 -0.4254,1.69491 -0.28751,54.94765 0.30641,118.33941 l 1.07985,115.25775 22.66667,11.60676 c 12.46666,6.38372 23.38681,11.63372 24.267,11.66667 0.88019,0.0329 27.45112,-20.0401 59.04655,-44.60677 31.59541,-24.56666 58.17691,-44.66666 59.06997,-44.66666 0.89308,0 42.7205,41.1 92.94982,91.33333 50.22932,50.23334 92.07463,91.33334 92.98956,91.33334 0.91495,0 27.31659,-10.23868 58.67032,-22.75263 z M 420.344,407.02882 c -51.60236,-40.17442 -81.33334,-64.03353 -81.33334,-65.26997 0,-0.95348 109.26268,-86.71242 114.33334,-89.73883 1.32675,-0.79188 1.66667,17.51268 1.66667,89.7506 0,49.90995 -0.45,90.73302 -1,90.71791 -0.55,-0.0151 -15.7,-11.47196 -33.66667,-25.45971 z M 155.01066,343.26134 c 0,-34.42339 0.48836,-62.8898 1.08524,-63.25869 0.59687,-0.3689 15.12525,13.37886 32.28529,30.55056 l 31.20007,31.22126 -3.91457,4.37077 c -8.31084,9.27933 -58.68495,59.70408 -59.64412,59.70408 -0.55655,0 -1.01191,-28.16459 -1.01191,-62.58798 z"
     style="fill:#733284;stroke-width:1.33333337" />
  <path
     inkscape:connector-curvature="0"
     id="path3732"
     d="M 129.67732,638.46158 C 98.749855,632.84787 70.747992,611.69728 56.461583,583.15971 44.10974,558.4865 45.010651,577.57667 45.010651,340.51598 V 131.84931 l 3.755319,-12 C 60.569665,82.130978 87.463127,56.483333 125.33617,46.826159 l 11.67449,-2.976853 h 206 206.00001 l 11.67448,2.976853 c 37.87304,9.657174 64.76651,35.304819 76.57021,73.023151 l 3.75532,12 v 208.66667 c 0,237.06069 0.9009,217.97052 -11.45094,242.64373 -14.54032,29.04477 -42.44239,49.83632 -74.34613,55.39987 -16.06531,2.80156 -410.06173,2.71081 -425.53629,-0.098 z M 516.74706,555.0194 c 31.38835,-12.55833 57.93835,-23.70196 59,-24.76361 1.65127,-1.65126 1.93028,-16.71234 1.93028,-104.19375 V 323.79858 l 12.67419,-5.81379 c 16.5754,-7.60332 40.87944,-21.06418 42.99248,-23.81152 1.28837,-1.67513 1.66666,-19.37185 1.66666,-77.96835 0,-83.33478 -0.27065,-86.82992 -8.20393,-105.94386 -12.86857,-31.004728 -41.76888,-53.46427 -75.92835,-59.006853 -11.67662,-1.894605 -403.94064,-1.91384 -415.60891,-0.02039 -10.73359,1.741786 -18.54866,4.344748 -30.41114,10.129023 -23.951036,11.678792 -41.265278,32.798374 -50.134517,61.153126 -2.833929,9.06001 -2.933144,11.55771 -3.387944,85.29046 -0.257685,41.77642 -0.138736,77.27108 0.264332,78.87703 0.869803,3.46557 12.461082,11.03576 34.077108,22.25553 8.433333,4.37732 16.083341,8.88754 17.000001,10.02271 1.28579,1.59228 1.66667,18.00125 1.66667,71.8021 v 69.73813 l 23.98597,12.00703 c 13.19228,6.60387 24.65683,12.00703 25.47678,12.00703 0.81995,0 27.06011,-19.89118 58.31145,-44.2026 31.25136,-24.31145 57.73681,-44.43206 58.85657,-44.7125 1.28118,-0.32085 35.89228,33.36483 93.36559,90.86928 50.23133,50.25854 92.23133,91.37993 93.33333,91.38086 1.10202,9.3e-4 27.68503,-10.27329 59.07338,-22.83163 z M 412.69225,399.39678 c -22.17513,-17.24529 -40.1085,-31.56498 -39.85194,-31.82156 0.25656,-0.25656 9.09985,-1.061 19.65176,-1.78765 10.55189,-0.72665 28.41601,-2.52928 39.69802,-4.00584 11.28203,-1.47657 20.74199,-2.45544 21.02217,-2.17528 0.28016,0.28017 0.34942,16.40249 0.1539,35.8274 l -0.35549,35.318 z m -256.34826,-27.3828 c 0,-30.93888 0.15514,-33.09635 2.33334,-32.45035 4.02392,1.19338 36.72652,10.09023 42.66666,11.60762 3.11667,0.79613 5.66667,1.88031 5.66667,2.40928 0,0.52897 -11.4,12.34993 -25.33333,26.26879 l -25.33334,25.30701 z"
     style="fill:#642075;stroke-width:1.33333337" />
  <path
     inkscape:connector-curvature="0"
     id="path3730"
     d="m 129.01066,638.37105 c -7.58691,-1.35544 -15.06963,-4.05651 -25.91621,-9.35511 C 89.566303,622.40738 86.556132,620.26363 76.427783,610.02482 64.514837,597.98195 58.317554,588.83615 52.779448,575.12518 45.011656,555.89407 45.332857,566.2953 45.596236,342.51598 45.805764,164.4904 46.108127,135.85272 47.869767,127.18264 55.580234,89.234861 83.706023,59.459805 122.43493,48.245057 l 10.57573,-3.062418 h 210 210.00001 l 10.57572,3.062418 c 38.72891,11.214748 66.8547,40.989804 74.56517,78.937583 1.76164,8.67008 2.06401,37.30776 2.27353,215.33334 0.26339,223.77932 0.58459,213.37809 -7.18322,232.6092 -5.5381,13.71097 -11.73538,22.85677 -23.64833,34.89964 -10.13676,10.24732 -13.12728,12.37581 -26.66667,18.9799 -25.2018,12.29266 -9.03916,11.52897 -241.09086,11.39162 -168.99482,-0.1 -203.90854,-0.43227 -212.82535,-2.02529 z m 431.50611,-6.76433 c 38.17701,-10.88142 65.83494,-39.86769 73.1283,-76.64045 2.32642,-11.72961 2.49529,-24.33563 2.91747,-217.78362 l 0.44814,-205.33334 -3.78307,-11.33334 c -13.31008,-39.874387 -41.8673,-64.68488 -82.79515,-71.932359 -5.29485,-0.937609 -73.94047,-1.400972 -207.54938,-1.400972 -216.89528,0 -208.32152,-0.27821 -229.02413,7.431638 -31.269599,11.645095 -52.721576,36.27494 -62.624576,71.901693 -2.040896,7.34227 -2.186423,24.77211 -1.770047,212.00001 0.426892,191.95681 0.599125,204.73501 2.917468,216.45029 5.820543,29.41295 24.989894,54.55092 51.962195,68.14127 24.98807,12.59056 10.50824,11.89653 242.66668,11.63113 l 203.33334,-0.23245 z"
     style="fill:#3d1447;stroke-width:1.33333337" />
</svg>
